<?xml version='1.0' encoding='iso-8859-1'?>
<svg version="1.1" xmlns="http://www.w3.org/2000/svg" viewBox="0 0 463 463" xmlns:xlink="http://www.w3.org/1999/xlink" enable-background="new 0 0 463 463">
  <path d="m408.135,1.161c-23.695-3.628-45.969,2.296-62.72,16.678-13.909,11.942-22.918,28.738-24.967,46.042h-177.896c-2.049-17.304-11.058-34.099-24.967-46.042-16.751-14.381-39.023-20.306-62.72-16.678-30.253,4.63-54.865,32.404-54.865,61.913 0,14.798 5.833,29.643 16.005,40.73 10.747,11.714 25.178,18.291 40.635,18.519 4.002,0.062 7.864-0.244 11.565-0.87-4.403,11.925-10.922,30.663-17.292,52.995-14.666,51.416-21.024,94.951-18.898,129.394 3.269,52.951 24.044,93.757 61.749,121.285 33.83,24.698 81.459,37.753 137.737,37.753s103.907-13.055 137.737-37.753c37.705-27.527 58.48-68.333 61.749-121.285 2.126-34.443-4.232-77.978-18.898-129.394-6.37-22.333-12.89-41.072-17.292-52.997 3.391,0.574 6.919,0.88 10.569,0.879 0.33,0 0.666-0.002 0.997-0.007 15.457-0.228 29.888-6.805 40.634-18.519 10.17-11.087 16.003-25.932 16.003-40.73 0-29.509-24.612-57.283-54.865-61.913zm-201.135,381.608v-303.889h17v304.894c-5.879-0.153-11.547-0.487-17-1.005zm-64.442-303.889h17.442v292.828c-15.283-6.505-27.413-15.598-36.283-27.262-38.258-50.308-13.313-140.286 4.901-205.985 6.811-24.568 12.393-44.738 13.94-59.581zm32.442,296.5v-296.5h17v301.923c-6.031-1.032-11.748-2.328-17.161-3.877 0.104-0.499 0.161-1.016 0.161-1.546zm64-296.5h17v303.889c-5.453,0.517-11.121,0.852-17,1.005v-304.894zm32,0h17v296.5c0,0.53 0.057,1.046 0.161,1.545-5.413,1.549-11.13,2.846-17.161,3.877v-301.922zm32,0h17.442c1.547,14.843 7.129,35.013 13.94,59.581 18.214,65.699 43.16,155.677 4.901,205.985-8.87,11.663-21,20.757-36.283,27.262v-292.828zm113.014,224.038c-2.98,48.283-21.694,85.324-55.622,110.094-31.245,22.811-75.815,34.868-128.892,34.868s-97.647-12.057-128.892-34.868c-33.928-24.77-52.642-61.811-55.622-110.094-2.257-36.56 6.311-80.081 16.134-116.212-5.237,28.646-8.62,58.986-7.156,86.078 2.852,52.782 21.037,93.506 54.049,121.043 29.844,24.894 71.853,38.052 121.487,38.052s91.644-13.158 121.487-38.052c33.013-27.537 51.197-68.262 54.049-121.043 1.464-27.093-1.919-57.433-7.157-86.08 9.824,36.132 18.392,79.654 16.135,116.214zm19.928-209.254c-7.93,8.643-18.514,13.494-29.803,13.661-20.649,0.288-35.158-10.82-37.889-29.031-1.298-8.653 0.501-15.894 5.347-21.521 5.418-6.291 14.718-10.199 24.271-10.199 9.998,0 18.132,8.134 18.132,18.132 0,7.171-5.834,13.005-13.005,13.005-4.91,0-8.904-3.995-8.904-8.904 0-4.142-3.358-7.5-7.5-7.5s-7.5,3.358-7.5,7.5c0,13.181 10.724,23.904 23.904,23.904 15.442,0 28.005-12.563 28.005-28.005 0-18.269-14.863-33.132-33.132-33.132-14.004,0-27.327,5.761-35.637,15.411-7.714,8.958-10.762,20.554-8.814,33.535 1.398,9.317 5.146,17.473 10.701,24.051 0.055,0.34 0.125,0.68 0.229,1.019 11.658,37.93 30.759,109.983 27.712,166.386-2.618,48.453-18.996,85.574-48.679,110.334-27.113,22.616-65.8,34.57-111.879,34.57s-84.766-11.954-111.879-34.57c-29.684-24.76-46.062-61.882-48.679-110.334-3.048-56.406 16.055-128.46 27.713-166.391 0.106-0.344 0.176-0.689 0.231-1.034 5.55-6.577 9.301-14.724 10.697-24.031 1.947-12.981-1.101-24.578-8.814-33.535-8.311-9.649-21.633-15.411-35.637-15.411-18.27-1.06581e-14-33.133,14.863-33.133,33.132 0,15.442 12.563,28.005 28.005,28.005 13.181,0 23.904-10.724 23.904-23.904 0-4.142-3.358-7.5-7.5-7.5s-7.5,3.358-7.5,7.5c0,4.91-3.995,8.904-8.904,8.904-7.171,0-13.005-5.834-13.005-13.005 0-9.998 8.134-18.132 18.132-18.132 9.553,0 18.853,3.908 24.271,10.199 4.846,5.627 6.645,12.868 5.347,21.521-2.732,18.21-17.269,29.307-37.889,29.03-11.29-0.167-21.874-5.019-29.803-13.661-7.663-8.352-12.058-19.501-12.058-30.589 0-22.408 18.901-43.53 42.135-47.086 24.74-3.788 41.214,5.106 50.679,13.232 12.451,10.69 20.186,26.845 20.186,42.16 0,13.165-6.412,36.293-13.836,63.073-19.053,68.724-45.147,162.844-2.386,219.072 22.887,30.095 63.167,45.354 119.723,45.354s96.836-15.259 119.723-45.354c42.761-56.228 16.667-150.349-2.386-219.072-7.426-26.78-13.838-49.908-13.838-63.073 0-15.315 7.735-31.47 20.187-42.161 9.464-8.126 25.939-17.017 50.679-13.232 23.233,3.557 42.134,24.68 42.134,47.087 0,11.088-4.395,22.237-12.058,30.59z"/>
</svg>
